<svg xmlns="http://www.w3.org/2000/svg" width="439" height="80" fill="none" viewBox="0 0 439 80"><path fill="#5ecc62" d="m23.68 80-2.823-17.618h39.528L57.56 44.845h19.582L69.948 0H0l12.842 80zm24.227-27.307H19.309L12.386 9.69h48.27l4.1 25.465H45.174z"/><path fill="#fff" d="M122.318 80V56.147c3.432 4.427 8.523 7.084 15.165 7.084 13.172 0 21.805-10.626 21.805-23.798s-8.633-23.798-21.805-23.798c-6.642 0-11.733 2.767-15.165 7.084v-5.977h-10.515V80zm13.283-27.174c-7.416-.11-13.283-5.977-13.283-13.393 0-7.306 5.867-13.283 13.283-13.283 7.306 0 13.283 5.977 13.283 13.283 0 7.416-5.977 13.282-13.283 13.393m37.523 9.298V0h-10.515v62.124zm25.127 1.107c6.641 0 11.733-2.657 15.275-7.084v5.977h10.404V16.742h-10.404v5.977c-3.542-4.317-8.634-7.084-15.275-7.084-13.172 0-21.806 10.626-21.806 23.798s8.634 23.798 21.806 23.798m1.992-10.405c-7.416-.11-13.283-5.977-13.283-13.393 0-7.306 5.867-13.283 13.283-13.283 7.306 0 13.283 5.977 13.283 13.283 0 7.416-5.977 13.282-13.283 13.393m37.523 9.298V39.433c0-7.306 4.207-13.283 11.623-13.283 7.305 0 9.962 5.977 9.962 13.283v22.69h10.404v-22.69c0-13.172-5.313-23.798-18.485-23.798-5.977 0-10.515 2.324-13.504 5.977v-4.87h-10.515v45.382zM283.591 80V56.147c3.432 4.427 8.523 7.084 15.165 7.084 13.172 0 21.805-10.626 21.805-23.798s-8.633-23.798-21.805-23.798c-6.642 0-11.733 2.767-15.165 7.084v-5.977h-10.515V80zm13.283-27.174c-7.416-.11-13.283-5.977-13.283-13.393 0-7.306 5.867-13.283 13.283-13.283 7.305 0 13.283 5.977 13.283 13.283 0 7.416-5.978 13.282-13.283 13.393m37.523 9.298V16.742h-10.515v45.382zm27.119 1.107c11.401 0 20.809-7.97 23.245-18.596h-10.959c-1.992 4.76-6.752 8.191-12.286 8.191-7.416 0-13.283-5.977-13.283-13.393 0-7.306 5.867-13.283 13.283-13.283 5.534 0 10.294 3.32 12.286 8.08h10.959c-2.436-10.626-11.844-18.595-23.245-18.595-13.172 0-23.798 10.626-23.798 23.798s10.626 23.798 23.798 23.798m37.081-1.107 13.172-16.493 13.171 16.493h13.394L418.41 37.219l16.382-20.477h-13.394L398.597 45.41V0h-10.516v62.124z"/></svg>